<?xml version="1.0" encoding="utf-8"?>
<!-- Generator: Adobe Illustrator 26.5.0, SVG Export Plug-In . SVG Version: 6.00 Build 0)  -->
<svg version="1.1" id="Layer_2" xmlns="http://www.w3.org/2000/svg" xmlns:xlink="http://www.w3.org/1999/xlink" x="0px" y="0px"
	 viewBox="0 0 41.3 38" style="enable-background:new 0 0 41.3 38;" xml:space="preserve">
<style type="text/css">
	.st0{filter:url(#Adobe_OpacityMaskFilter);}
	.st1{mask:url(#SVGID_1_);}
	.st2{fill:#FFFFFF;}
	.st3{filter:url(#Adobe_OpacityMaskFilter_00000094603397848524921830000014394494422471069059_);}
	.st4{mask:url(#SVGID_00000148645532941285022940000011061600137742803647_);}
	.st5{fill:#F0A100;}
	.st6{fill:#1D1D1B;}
	.st7{fill:#DEBA0D;}
	.st8{fill:#F1A10F;}
	
		.st9{clip-path:url(#SVGID_00000179627069121434865520000011457996352290396814_);fill:url(#SVGID_00000145049897622312739690000006054790485928187532_);}
</style>
<g>
	<defs>
		<filter id="Adobe_OpacityMaskFilter" filterUnits="userSpaceOnUse" x="1.4" y="0" width="38" height="38">
			<feFlood  style="flood-color:white;flood-opacity:1" result="back"/>
			<feBlend  in="SourceGraphic" in2="back" mode="normal"/>
		</filter>
	</defs>
	<mask maskUnits="userSpaceOnUse" x="1.4" y="0" width="38" height="38" id="SVGID_1_">
		<g class="st0">
			<image style="overflow:visible;" width="43" height="43" xlink:href="41E38F84.jpg"  transform="matrix(1 0 0 1 -1 -2)">
			</image>
		</g>
	</mask>
	<g class="st1">
		<path class="st2" d="M20.4,38L20.4,38c-10.5,0-19-8.5-19-19v0c0-10.5,8.5-19,19-19h0c10.5,0,19,8.5,19,19v0
			C39.4,29.5,30.9,38,20.4,38z"/>
	</g>
</g>
<g>
	<defs>
		
			<filter id="Adobe_OpacityMaskFilter_00000137831472896743094690000010388767053924895389_" filterUnits="userSpaceOnUse" x="8.1" y="21.3" width="25.4" height="0.5">
			<feFlood  style="flood-color:white;flood-opacity:1" result="back"/>
			<feBlend  in="SourceGraphic" in2="back" mode="normal"/>
		</filter>
	</defs>
	
		<mask maskUnits="userSpaceOnUse" x="8.1" y="21.3" width="25.4" height="0.5" id="SVGID_00000046303492866985055110000004231110911873238452_">
		<g style="filter:url(#Adobe_OpacityMaskFilter_00000137831472896743094690000010388767053924895389_);">
			<image style="overflow:visible;" width="30" height="5" xlink:href="41E38F83.jpg"  transform="matrix(1 0 0 1 6 19)">
			</image>
		</g>
	</mask>
	<g style="mask:url(#SVGID_00000046303492866985055110000004231110911873238452_);">
		<path class="st5" d="M8.1,21.6c8.2-0.3,17.2-0.3,25.4,0C25.4,21.9,16.3,21.9,8.1,21.6L8.1,21.6z"/>
	</g>
</g>
<g>
	<path class="st6" d="M16.2,25.1c0,0.1-0.1,0.3-0.1,0.4h-1.4v0c0.3,0,0.3-0.1,0.3-0.3v-1.3c0-0.3,0-0.3-0.2-0.3v0h0.9
		c0.3,0,0.4,0,0.4,0c0,0.1,0,0.3,0,0.4l0,0c0-0.1-0.1-0.2-0.1-0.2c-0.1-0.1-0.1-0.1-0.3-0.1h-0.3c-0.1,0-0.1,0-0.1,0.1v0.7h0.4
		c0.2,0,0.2,0,0.3-0.2h0v0.6h0c-0.1-0.2-0.1-0.2-0.3-0.2h-0.4v0.7c0,0.2,0.1,0.2,0.3,0.2h0.3c0.1,0,0.2,0,0.3-0.1
		C16.1,25.2,16.1,25.1,16.2,25.1L16.2,25.1z"/>
	<path class="st6" d="M18.5,23.6c-0.2,0-0.2,0.1-0.3,0.3c-0.1,0.2-0.4,1.1-0.6,1.6h0c-0.2-0.6-0.4-1.1-0.6-1.7
		c-0.1-0.2-0.1-0.3-0.3-0.3v0h0.7v0c-0.2,0-0.2,0.1-0.2,0.2c0.1,0.2,0.4,1.2,0.5,1.4c0.1-0.3,0.4-1,0.5-1.3c0.1-0.2,0.1-0.2-0.2-0.3
		v0L18.5,23.6L18.5,23.6z"/>
	<path class="st6" d="M20.3,25.1c0,0.1-0.1,0.3-0.1,0.4h-1.4v0c0.3,0,0.3-0.1,0.3-0.3v-1.3c0-0.3,0-0.3-0.2-0.3v0h0.9
		c0.3,0,0.4,0,0.4,0c0,0.1,0,0.3,0,0.4l0,0c0-0.1-0.1-0.2-0.1-0.2c-0.1-0.1-0.1-0.1-0.3-0.1h-0.3c-0.1,0-0.1,0-0.1,0.1v0.7h0.4
		c0.2,0,0.2,0,0.3-0.2h0v0.6h0c-0.1-0.2-0.1-0.2-0.3-0.2h-0.4v0.7c0,0.2,0.1,0.2,0.3,0.2h0.3c0.1,0,0.2,0,0.3-0.1
		C20.2,25.2,20.3,25.1,20.3,25.1L20.3,25.1z"/>
	<path class="st6" d="M22.8,23.6c-0.2,0-0.2,0.1-0.2,0.3c0,0.1,0,0.1,0,0.4v1.3h0l-1.4-1.7v0.9c0,0.3,0,0.4,0,0.5
		c0,0.2,0.1,0.2,0.3,0.3v0h-0.7v0c0.2-0.1,0.3-0.1,0.3-0.3c0-0.1,0-0.2,0-0.5v-0.9c0-0.1,0-0.1,0-0.1c-0.1-0.1-0.2-0.1-0.3-0.1v0
		h0.4l1.3,1.6v-0.9c0-0.3,0-0.3,0-0.4c0-0.2-0.1-0.2-0.3-0.3v0L22.8,23.6L22.8,23.6z"/>
	<path class="st6" d="M25,24c0-0.1,0-0.1-0.1-0.2c-0.1-0.1-0.1-0.2-0.3-0.2h-0.4v1.6c0,0.2,0,0.3,0.3,0.3v0h-0.8v0
		c0.3,0,0.3-0.1,0.3-0.3v-1.6h-0.4c-0.2,0-0.2,0.1-0.2,0.1c0,0.1-0.1,0.1-0.1,0.2h0c0-0.2,0-0.3,0-0.5h0c0,0,0.1,0.1,0.2,0.1h1.3
		c0.1,0,0.1,0,0.1-0.1h0C25,23.6,25,23.8,25,24L25,24z"/>
	<path class="st6" d="M26.5,23.9c-0.1-0.2-0.1-0.4-0.4-0.4c-0.2,0-0.3,0.2-0.3,0.3c0,0.2,0.1,0.3,0.4,0.5c0.2,0.1,0.5,0.3,0.5,0.6
		c0,0.3-0.3,0.6-0.6,0.6c-0.2,0-0.3-0.1-0.4-0.1c0-0.1-0.1-0.3-0.1-0.4l0,0c0.1,0.2,0.2,0.4,0.5,0.4c0.3,0,0.4-0.2,0.4-0.4
		c0-0.2-0.2-0.4-0.4-0.5c-0.2-0.1-0.5-0.3-0.5-0.6c0-0.3,0.2-0.5,0.6-0.5c0.2,0,0.3,0,0.4,0C26.6,23.6,26.6,23.8,26.5,23.9
		L26.5,23.9z"/>
</g>
<g>
	<g>
		
			<image style="overflow:visible;opacity:0.3;" width="89" height="89" xlink:href="41E38F84.png"  transform="matrix(1 0 0 1 15.4803 -28.5197)">
		</image>
		<g>
			<polygon class="st7" points="32.1,15.4 32.9,15.8 32.1,16.2 32,17.1 31.3,16.5 30.4,16.7 30.8,15.8 30.3,15 31.3,15.2 31.9,14.5 
							"/>
		</g>
	</g>
	<g>
		
			<image style="overflow:visible;opacity:0.3;" width="89" height="89" xlink:href="41E38F85.png"  transform="matrix(1 0 0 1 14.4803 -20.5197)">
		</image>
		<g>
			<polygon class="st7" points="31.4,23.6 32.1,24.2 31.2,24.4 30.9,25.3 30.4,24.5 29.5,24.4 30.1,23.7 29.8,22.8 30.7,23.2 
				31.5,22.7 			"/>
		</g>
	</g>
	<g>
		
			<image style="overflow:visible;opacity:0.3;" width="90" height="91" xlink:href="41E38F86.png"  transform="matrix(1 0 0 1 17.4803 -25.5197)">
		</image>
		<g>
			<polygon class="st8" points="34.8,19.3 36.3,20.1 34.8,20.8 34.5,22.4 33.4,21.2 31.8,21.4 32.6,20 31.8,18.5 33.5,18.8 
				34.6,17.7 			"/>
		</g>
	</g>
</g>
<g>
	<defs>
		<path id="SVGID_00000114773259725552836100000014315397975645601434_" d="M13.1,21c-0.5-0.8-0.8-1.6-0.8-2.4
			c0-0.5,0.1-1.2,0.3-2.2c0.3-1.2,0.4-2.1,0.4-2.7c0-0.8-0.2-1.4-0.7-1.9c-0.5-0.5-1.2-0.7-2-0.7c-1.2,0-2.2,0.4-3.1,1.3
			c-0.9,0.9-1.3,1.9-1.3,3.1c0,1,0.3,1.8,0.9,2.4c0.6,0.7,1.3,1,2.2,1s1.6-0.3,2.3-1c0.6-0.6,1-1.4,1-2.2c0-0.6-0.2-1.1-0.6-1.6
			s-0.9-0.7-1.5-0.7c-0.5,0-1,0.2-1.5,0.7l-0.1-0.2c0.5-0.4,1-0.7,1.6-0.7c0.6,0,1.1,0.2,1.6,0.7c0.4,0.5,0.7,1.1,0.7,1.8
			c0,0.9-0.3,1.7-1,2.3c-0.7,0.7-1.5,1-2.4,1c-1,0-1.8-0.3-2.4-1c-0.7-0.7-1-1.6-1-2.6c0-1.2,0.5-2.3,1.4-3.2c0.9-0.9,2-1.4,3.3-1.4
			c1,0,1.9,0.3,2.5,1c0.6,0.6,1,1.5,1,2.5c0,0.5,0,0.9-0.1,1.2c0,0.1-0.1,0.5-0.3,1.3c0-0.1-0.1,0.4-0.3,1.4
			c-0.1,0.5-0.2,1.1-0.2,1.6c0,0.3,0,0.5,0.1,0.7c0.2-1.1,0.6-2.3,1.2-3.5c0.5-1.2,1.1-2.2,1.8-3.1c0.6-0.7,1.1-1.3,1.8-1.8
			c0.6-0.4,1.2-0.7,1.6-0.7c0.2,0,0.3,0,0.4,0.1c0.1,0.1,0.2,0.2,0.2,0.3c0,0.1-0.1,0.3-0.2,0.4s-0.2,0.2-0.3,0.2
			c-0.2,0-0.3-0.1-0.5-0.3L19,12.1C18.9,12,18.9,12,18.8,12c-0.3,0-0.7,0.2-1.2,0.7c-0.5,0.5-1,1-1.5,1.7c-1.4,1.9-2.3,4-2.7,6.3
			l-0.1,0.3L13.1,21z M19.3,18.9c0,0.1,0.1,0.2,0.3,0.2c0.1,0,0.4-0.2,0.7-0.5c0.2-0.3,0.6-0.8,1.1-1.5c0,0.1,0,0.1,0,0.1
			c0,0.1-0.1,0.4-0.4,0.8c-0.4,0.5-0.7,0.9-0.9,1.1c-0.3,0.3-0.5,0.4-0.7,0.4c-0.1,0-0.3-0.1-0.4-0.2C18.5,19.8,18,20,17.5,20
			c-0.4,0-0.7-0.1-0.9-0.3c-0.2-0.2-0.3-0.5-0.3-0.9c0-0.5,0.2-1.1,0.7-1.6c0.5-0.5,1-0.8,1.5-0.8c0.3,0,0.6,0.1,0.8,0.4
			c0.2,0.2,0.3,0.6,0.3,0.9C19.6,18,19.5,18.4,19.3,18.9z M19.1,17.3c-0.1-0.5-0.3-0.7-0.7-0.7c-0.2,0-0.4,0.1-0.6,0.3
			c-0.3,0.2-0.5,0.6-0.6,0.9c-0.2,0.4-0.2,0.7-0.2,1.1c0,0.6,0.2,0.9,0.6,0.9c0.3,0,0.7-0.3,1.1-0.8c0-0.1-0.1-0.2-0.1-0.4
			C18.6,18.1,18.8,17.7,19.1,17.3z M20.8,18.7l0.6-2c0-0.1,0.1-0.2,0.2-0.2l0.4-0.1h0c0,0,0.1,0,0.1,0.1c0,0,0,0,0,0.1l-0.7,2.1
			c-0.1,0.3-0.1,0.5-0.1,0.7c0,0.2,0.1,0.3,0.3,0.3c0.4,0,1.2-0.8,2.3-2.5c0,0,0,0,0,0.1c0,0,0,0.1,0,0.1c0,0.2-0.2,0.5-0.5,1
			c-0.8,1.1-1.5,1.7-2.1,1.7c-0.4,0-0.6-0.2-0.6-0.6C20.6,19.2,20.7,19,20.8,18.7z M22.3,15.6c-0.1,0-0.3,0-0.4-0.1
			c-0.1-0.1-0.2-0.1-0.2-0.2c0-0.1,0-0.1,0.1-0.3c0.1-0.1,0.1-0.2,0.2-0.2s0.1,0,0.1,0.1c0.1,0.1,0.2,0.1,0.2,0.1c0,0,0.1,0,0.1,0.1
			c0,0,0.1,0.1,0.1,0.1C22.5,15.4,22.4,15.6,22.3,15.6z M24.2,17.9c-0.1,0.3-0.1,0.6-0.1,0.8c0,0.6,0.2,0.9,0.5,0.9
			c0.2,0,0.6-0.2,1-0.6c0.3-0.4,0.8-1,1.4-1.9l0,0.2c0,0.1-0.2,0.4-0.5,0.9c-0.8,1.2-1.5,1.7-2.1,1.7c-0.3,0-0.5-0.1-0.7-0.3
			c-0.2-0.2-0.3-0.5-0.3-0.9c0-0.3,0.1-1,0.4-2c0.2-0.8,0.5-1.6,0.9-2.4c0.4-0.7,0.7-1.2,1-1.4l0.1,0c0.1,0.1,0.2,0.3,0.2,0.7
			C25.9,15,25.3,16.4,24.2,17.9z M24.2,17.5c0.7-1,1.1-1.9,1.1-2.8c0-0.3,0-0.6-0.1-0.9C24.8,14.7,24.4,16,24.2,17.5z M28.4,18.3
			c-0.6,1.1-1.1,1.6-1.6,1.6c-0.2,0-0.4-0.1-0.6-0.3c-0.2-0.2-0.2-0.4-0.2-0.8c0-0.6,0.3-1.3,1-1.9c0.4-0.4,0.9-0.6,1.5-0.6
			c0.3,0,0.6,0.1,0.9,0.2l0,0v0c0,0.1-0.1,0.4-0.2,0.8L28.8,19c0,0.1-0.1,0.2-0.1,0.3c0,0.1,0.1,0.2,0.2,0.2c0.3,0,1-0.8,2.1-2.4
			c0,0.1,0,0.2,0,0.1c0,0.1-0.1,0.3-0.4,0.6c-0.6,0.8-1,1.2-1.2,1.5c-0.3,0.4-0.6,0.5-0.9,0.5c-0.3,0-0.5-0.2-0.5-0.5
			C28.1,19.2,28.2,18.9,28.4,18.3z M28.9,16.8c-0.1-0.1-0.3-0.1-0.4-0.1c-0.3,0-0.7,0.3-1,0.8c-0.5,0.7-0.8,1.3-0.8,1.7
			c0,0.3,0.1,0.4,0.3,0.4c0.2,0,0.5-0.2,0.8-0.7C28.2,18.4,28.5,17.7,28.9,16.8z M28.3,14.9l0.6,1.1h-0.3l-0.7-0.8
			c-0.1-0.1-0.1-0.2-0.1-0.3c0-0.2,0.1-0.2,0.3-0.2C28.1,14.7,28.2,14.8,28.3,14.9z"/>
	</defs>
	<clipPath id="SVGID_00000164471716919962725680000010301125522810992049_">
		<use xlink:href="#SVGID_00000114773259725552836100000014315397975645601434_"  style="overflow:visible;"/>
	</clipPath>
	
		<linearGradient id="SVGID_00000125563288434137200490000010527963170163588748_" gradientUnits="userSpaceOnUse" x1="5.35" y1="15.8187" x2="31.5807" y2="15.8187">
		<stop  offset="0" style="stop-color:#F6C8A1"/>
		<stop  offset="0.3647" style="stop-color:#F4BB69"/>
		<stop  offset="1" style="stop-color:#F1A200"/>
	</linearGradient>
	
		<rect x="5.3" y="10.5" style="clip-path:url(#SVGID_00000164471716919962725680000010301125522810992049_);fill:url(#SVGID_00000125563288434137200490000010527963170163588748_);" width="26.2" height="10.6"/>
</g>
</svg>
