<?xml version="1.0" encoding="utf-8"?>
<!-- Generator: Adobe Illustrator 26.5.0, SVG Export Plug-In . SVG Version: 6.00 Build 0)  -->
<svg version="1.1" id="Layer_2" xmlns="http://www.w3.org/2000/svg" xmlns:xlink="http://www.w3.org/1999/xlink" x="0px" y="0px"
	 viewBox="0 0 41.3 38" style="enable-background:new 0 0 41.3 38;" xml:space="preserve">
<style type="text/css">
	.st0{opacity:0.86;fill:url(#SVGID_1_);}
	.st1{fill:none;stroke:#61388C;stroke-width:0.25;stroke-linecap:round;stroke-linejoin:round;stroke-miterlimit:10;}
	.st2{fill:#FFFFFF;stroke:#61388C;stroke-width:7.000000e-02;stroke-miterlimit:10;}
</style>
<linearGradient id="SVGID_1_" gradientUnits="userSpaceOnUse" x1="-2071.2271" y1="-633.0385" x2="-2035.4099" y2="-633.0385" gradientTransform="matrix(0.949 0.3152 -0.3152 0.949 1769.781 1267.2324)">
	<stop  offset="0.2778" style="stop-color:#61388C"/>
	<stop  offset="0.754" style="stop-color:#86CEE4"/>
</linearGradient>
<path class="st0" d="M20.6,37.2L20.6,37.2c-9.9,0-17.9-8-17.9-17.9v0c0-9.9,8-17.9,17.9-17.9h0c9.9,0,17.9,8,17.9,17.9v0
	C38.5,29.2,30.5,37.2,20.6,37.2z"/>
<g>
	<line class="st1" x1="27.3" y1="0.3" x2="12.4" y2="37.5"/>
</g>
<g>
	<g>
		<g>
			<path class="st2" d="M25.8,9.6c-1.9,0.3-2.4,0.5-3.4,3.1c-0.8,1.9-4.7,11.4-6.1,14.9h-0.9c-1.7-4.6-4.1-11.2-5.7-15.4
				c-0.8-2.1-1.3-2.4-3-2.6V8.8h7.2v0.8c-2.1,0.2-2.2,0.6-1.8,1.6c0.7,2.1,2.8,7.7,4.6,12.4c1.5-3.7,3.4-8.3,4.7-11.9
				c0.6-1.6,0.3-1.9-2-2.2V8.8h6.5V9.6z"/>
		</g>
	</g>
	<g>
		<g>
			<path class="st2" d="M31.6,29.2c-0.1,0.6-0.8,2.9-1,3.6H19.6v-0.6c2.1-0.2,2.3-0.4,2.3-2.2v-9c0-2-0.3-2.1-2-2.3V18h7
				c2.1,0,3,0,3.3,0c0,0.6,0.1,2.3,0.2,3.5l-0.7,0.1c-0.2-0.8-0.4-1.3-0.7-1.7c-0.4-0.8-0.9-0.9-2.3-0.9h-2.2
				c-0.7,0-0.8,0.1-0.8,0.7v5h2.5c1.7,0,1.8-0.3,2.1-1.9h0.7v4.7h-0.7c-0.3-1.6-0.5-1.9-2.1-1.9h-2.5v4.5c0,1.6,0.5,1.7,1.6,1.8h2.1
				c1.4,0,1.6-0.2,2.1-0.8c0.4-0.5,0.9-1.4,1.2-2.1L31.6,29.2z"/>
		</g>
	</g>
</g>
</svg>
